G04 EAGLE Gerber RS-274X export*
G75*
%MOMM*%
%FSLAX34Y34*%
%LPD*%
%INTop Copper*%
%IPPOS*%
%AMOC8*
5,1,8,0,0,1.08239X$1,22.5*%
G01*
G04 Define Apertures*
%ADD10R,2.032000X2.032000*%
%ADD11C,2.032000*%
%ADD12C,1.450000*%
%ADD13C,1.260000*%
%ADD14R,0.973900X0.798700*%
%ADD15C,1.800000*%
%ADD16R,1.108000X1.108000*%
%ADD17C,1.108000*%
%ADD18C,1.453900*%
%ADD19P,1.81452X8X22.5*%
%ADD20C,1.879600*%
%ADD21C,0.152400*%
%ADD22C,0.756400*%
D10*
X50800Y469500D03*
D11*
X50800Y419500D03*
D12*
X152400Y431800D03*
X152400Y457200D03*
D13*
X228600Y506100D03*
X228600Y433700D03*
D10*
X50800Y367900D03*
D11*
X50800Y317900D03*
D12*
X152400Y330200D03*
X152400Y355600D03*
D13*
X228600Y404500D03*
X228600Y332100D03*
D10*
X50800Y266300D03*
D11*
X50800Y216300D03*
D12*
X152400Y228600D03*
X152400Y254000D03*
D13*
X228600Y302900D03*
X228600Y230500D03*
D14*
X190500Y452652D03*
X190500Y436348D03*
X190500Y351052D03*
X190500Y334748D03*
X190500Y249452D03*
X190500Y233148D03*
D15*
X79000Y126960D02*
X79000Y108960D01*
X137000Y108960D02*
X137000Y126960D01*
X116000Y69960D02*
X98000Y69960D01*
D16*
X743363Y816500D03*
D17*
X743363Y791100D03*
D16*
X743363Y206900D03*
D17*
X743363Y181500D03*
X717963Y206900D03*
X717963Y181500D03*
X717963Y816500D03*
X717963Y791100D03*
X692563Y816500D03*
X692563Y791100D03*
X667163Y816500D03*
X667163Y791100D03*
X641763Y816500D03*
X641763Y791100D03*
X616363Y816500D03*
X616363Y791100D03*
X590963Y816500D03*
X590963Y791100D03*
X565563Y816500D03*
X565563Y791100D03*
X540163Y816500D03*
X540163Y791100D03*
X514763Y816500D03*
X514763Y791100D03*
X489363Y816500D03*
X489363Y791100D03*
X463963Y816500D03*
X463963Y791100D03*
X438563Y816500D03*
X438563Y791100D03*
X413163Y816500D03*
X413163Y791100D03*
X387763Y816500D03*
X387763Y791100D03*
X362363Y816500D03*
X362363Y791100D03*
X336963Y816500D03*
X336963Y791100D03*
X311563Y816500D03*
X311563Y791100D03*
X286163Y816500D03*
X286163Y791100D03*
X692563Y206900D03*
X692563Y181500D03*
X667163Y206900D03*
X667163Y181500D03*
X641763Y206900D03*
X641763Y181500D03*
X616363Y206900D03*
X616363Y181500D03*
X590963Y206900D03*
X590963Y181500D03*
X565563Y206900D03*
X565563Y181500D03*
X540163Y206900D03*
X540163Y181500D03*
X514763Y206900D03*
X514763Y181500D03*
X489363Y206900D03*
X489363Y181500D03*
X463963Y206900D03*
X463963Y181500D03*
X438563Y206900D03*
X438563Y181500D03*
X413163Y206900D03*
X413163Y181500D03*
X387763Y206900D03*
X387763Y181500D03*
X362363Y206900D03*
X362363Y181500D03*
X336963Y206900D03*
X336963Y181500D03*
X311563Y206900D03*
X311563Y181500D03*
X286163Y206900D03*
X286163Y181500D03*
D10*
X380600Y50800D03*
D11*
X330600Y50800D03*
D10*
X482200Y50800D03*
D11*
X432200Y50800D03*
D10*
X583800Y50800D03*
D11*
X533800Y50800D03*
D10*
X685400Y50800D03*
D11*
X635400Y50800D03*
D18*
X127000Y687050D03*
X127000Y659150D03*
X228600Y659150D03*
X228600Y687050D03*
X127000Y572750D03*
X127000Y544850D03*
X228600Y544850D03*
X228600Y572750D03*
D13*
X254000Y760100D03*
X254000Y687700D03*
D19*
X825500Y63500D03*
X850900Y63500D03*
D13*
X825500Y175900D03*
X825500Y103500D03*
D10*
X50800Y622700D03*
D11*
X50800Y672700D03*
D19*
X939800Y63500D03*
X965200Y63500D03*
D13*
X939800Y175900D03*
X939800Y103500D03*
D10*
X50800Y521100D03*
D11*
X50800Y571100D03*
D13*
X254000Y645800D03*
X254000Y573400D03*
D20*
X685800Y939800D03*
X685800Y965200D03*
X711200Y939800D03*
X711200Y965200D03*
X736600Y939800D03*
X736600Y965200D03*
X762000Y939800D03*
X762000Y965200D03*
X787400Y939800D03*
X787400Y965200D03*
X406400Y939800D03*
X406400Y965200D03*
X431800Y939800D03*
X431800Y965200D03*
X457200Y939800D03*
X457200Y965200D03*
X482600Y939800D03*
X482600Y965200D03*
X508000Y939800D03*
X508000Y965200D03*
D21*
X558800Y800100D02*
X565150Y793750D01*
X565563Y791100D01*
X679450Y190500D02*
X679450Y50800D01*
X425450Y298450D02*
X228600Y298450D01*
X679450Y50800D02*
X685400Y50800D01*
X228600Y298450D02*
X228600Y302900D01*
X513746Y196850D02*
X673100Y196850D01*
X513746Y196850D02*
X495300Y215296D01*
X495300Y228600D01*
X425450Y298450D01*
X254000Y760100D02*
X259080Y765180D01*
X484031Y800100D02*
X558800Y800100D01*
X484031Y800100D02*
X449111Y765180D01*
X259080Y765180D01*
X673100Y196850D02*
X679450Y190500D01*
X228600Y438150D02*
X190500Y438150D01*
X228600Y438150D02*
X228600Y433700D01*
X158750Y438150D02*
X152400Y431800D01*
X158750Y438150D02*
X190500Y438150D01*
X190500Y436348D01*
X57150Y431800D02*
X50800Y425450D01*
X57150Y431800D02*
X152400Y431800D01*
X50800Y425450D02*
X50800Y419500D01*
X184150Y254000D02*
X190500Y247650D01*
X184150Y254000D02*
X152400Y254000D01*
X501650Y196850D02*
X514350Y184150D01*
X501650Y196850D02*
X279400Y196850D01*
X260350Y215900D02*
X228600Y247650D01*
X260350Y215900D02*
X279400Y196850D01*
X228600Y247650D02*
X190500Y247650D01*
X514350Y184150D02*
X514763Y181500D01*
X190500Y247650D02*
X190500Y249452D01*
X57150Y254000D02*
X50800Y260350D01*
X57150Y254000D02*
X152400Y254000D01*
X50800Y260350D02*
X50800Y266300D01*
X177800Y215900D02*
X82550Y120650D01*
X177800Y215900D02*
X260350Y215900D01*
X82550Y120650D02*
X79000Y117960D01*
X488950Y793750D02*
X514350Y793750D01*
X514763Y791100D01*
X660400Y781050D02*
X666750Y787400D01*
X660400Y781050D02*
X520700Y781050D01*
X514350Y787400D01*
X666750Y787400D02*
X667163Y791100D01*
X514763Y791100D02*
X514350Y787400D01*
X406400Y965200D02*
X419100Y977900D01*
X673100Y977900D01*
X685800Y965200D01*
X184150Y355600D02*
X190500Y349250D01*
X184150Y355600D02*
X152400Y355600D01*
X190500Y351052D02*
X190500Y349250D01*
X152400Y355600D02*
X146050Y361950D01*
X50800Y361950D01*
X50800Y367900D01*
X177800Y660400D02*
X228600Y660400D01*
X177800Y660400D02*
X127000Y660400D01*
X127000Y659150D01*
X184150Y457200D02*
X190500Y450850D01*
X184150Y457200D02*
X152400Y457200D01*
X190500Y452652D02*
X190500Y450850D01*
X177800Y546100D02*
X127000Y546100D01*
X177800Y546100D02*
X228600Y546100D01*
X228600Y544850D01*
X127000Y544850D02*
X127000Y546100D01*
X177800Y546100D02*
X177800Y660400D01*
X228600Y660400D02*
X419100Y660400D01*
X228600Y660400D02*
X228600Y659150D01*
X488950Y791513D02*
X489363Y791100D01*
X488950Y791513D02*
X488950Y793750D01*
X489363Y791100D02*
X489363Y730663D01*
X419100Y660400D01*
X228600Y336550D02*
X190500Y336550D01*
X228600Y336550D02*
X228600Y332100D01*
X158750Y336550D02*
X152400Y330200D01*
X158750Y336550D02*
X190500Y336550D01*
X190500Y334748D01*
X57150Y330200D02*
X50800Y323850D01*
X57150Y330200D02*
X152400Y330200D01*
X50800Y323850D02*
X50800Y317900D01*
X190500Y234950D02*
X228600Y234950D01*
X228600Y230500D01*
X158750Y234950D02*
X152400Y228600D01*
X158750Y234950D02*
X190500Y234950D01*
X190500Y233148D01*
X57150Y228600D02*
X50800Y222250D01*
X57150Y228600D02*
X152400Y228600D01*
X50800Y222250D02*
X50800Y216300D01*
X825500Y175900D02*
X939800Y175900D01*
X552450Y895350D02*
X596900Y939800D01*
X685800Y939800D01*
D22*
X552450Y895350D03*
D21*
X254000Y692150D02*
X228600Y692150D01*
X254000Y692150D02*
X254000Y687700D01*
X228600Y687050D02*
X228600Y692150D01*
X825500Y103500D02*
X825500Y63500D01*
X127000Y685800D02*
X69850Y628650D01*
X50800Y628650D01*
X127000Y685800D02*
X127000Y687050D01*
X50800Y628650D02*
X50800Y622700D01*
X939800Y103500D02*
X939800Y63500D01*
X965200Y63500D02*
X927100Y25400D01*
X120650Y25400D01*
X38100Y107950D01*
X38100Y552450D01*
X50800Y565150D01*
X50800Y571100D01*
X82550Y527050D02*
X127000Y571500D01*
X82550Y527050D02*
X50800Y527050D01*
X127000Y571500D02*
X127000Y572750D01*
X50800Y527050D02*
X50800Y521100D01*
X228600Y577850D02*
X254000Y577850D01*
X228600Y577850D02*
X228600Y572750D01*
X254000Y573400D02*
X254000Y577850D01*
X514350Y209550D02*
X762000Y457200D01*
X514350Y209550D02*
X514763Y206900D01*
D22*
X762000Y457200D03*
D21*
X800100Y469900D02*
X539750Y209550D01*
X800100Y469900D02*
X800100Y952500D01*
X774700Y952500D01*
X762000Y965200D01*
X539750Y209550D02*
X540163Y206900D01*
X641350Y819150D02*
X749300Y927100D01*
X774700Y927100D01*
X787400Y939800D01*
X641350Y819150D02*
X641763Y816500D01*
X488950Y819150D02*
X419100Y889000D01*
X419100Y965200D01*
X431800Y965200D01*
X488950Y819150D02*
X489363Y816500D01*
X539750Y819150D02*
X539750Y838200D01*
X444500Y933450D01*
X444500Y965200D01*
X457200Y965200D01*
X539750Y819150D02*
X540163Y816500D01*
X565150Y819150D02*
X469900Y914400D01*
X469900Y965200D01*
X482600Y965200D01*
X565150Y819150D02*
X565563Y816500D01*
X469900Y806450D02*
X463550Y812800D01*
X469900Y806450D02*
X622300Y806450D01*
X628650Y812800D01*
X628650Y927100D01*
X698500Y927100D01*
X711200Y939800D01*
X463963Y816500D02*
X463550Y812800D01*
X508000Y927100D02*
X615950Y819150D01*
X508000Y927100D02*
X495300Y927100D01*
X482600Y939800D01*
X615950Y819150D02*
X616363Y816500D01*
M02*
