M48
;GenerationSoftware,Autodesk,EAGLE,9.7.0*%
;CreationDate,2025-12-05T12:42:58Z*%
FMAT,2
ICI,OFF
METRIC,TZ,000.000
T10C0.350
T9C0.600
T8C0.660
T7C0.800
T6C0.813
T5C0.850
T4C0.854
T3C1.016
T2C1.168
T1C3.200
%
G90
M71
T1
X105700Y5080
X2700Y3000
X2700Y102000
X105700Y102000
T2
X5080Y21630
X33060Y5080
X5080Y46950
X5080Y41950
X63540Y5080
X5080Y26630
X5080Y57110
X5080Y52110
X5080Y36790
X5080Y31790
X5080Y67270
X5080Y62270
X38060Y5080
X48220Y5080
X43220Y5080
X58380Y5080
X53380Y5080
X68540Y5080
T3
X71120Y96520
X73660Y93980
X73660Y96520
X76200Y93980
X76200Y96520
X78740Y93980
X78740Y96520
X40640Y96520
X50800Y96520
X43180Y93980
X43180Y96520
X45720Y93980
X45720Y96520
X48260Y93980
X48260Y96520
X50800Y93980
X40640Y93980
X68580Y93980
X68580Y96520
X71120Y93980
T4
X22860Y57275
X12700Y68705
X22860Y54485
X12700Y54485
X22860Y68705
X12700Y57275
X22860Y65915
X12700Y65915
T5
X15240Y33020
X15240Y35560
X15240Y45720
X15240Y22860
X15240Y25400
X15240Y43180
T6
X82550Y6350
X93980Y6350
X96520Y6350
X85090Y6350
T7
X7900Y11796
X13700Y11796
X10700Y6996
T8
X22860Y50610
X22860Y43370
X22860Y40450
X22860Y33210
X22860Y30290
X22860Y23050
X25400Y57340
X82550Y10350
X25400Y76010
X25400Y68770
X93980Y17590
X93980Y10350
X82550Y17590
X25400Y64580
T9
X66716Y79110
X59096Y18150
X56556Y20690
X56556Y18150
X54016Y20690
X54016Y18150
X51476Y20690
X51476Y18150
X48936Y20690
X48936Y18150
X46396Y20690
X46396Y18150
X43856Y20690
X43856Y18150
X41316Y20690
X41316Y18150
X38776Y20690
X38776Y18150
X36236Y20690
X36236Y18150
X33696Y20690
X33696Y18150
X31156Y20690
X31156Y18150
X28616Y20690
X28616Y18150
X74336Y81650
X74336Y79110
X74336Y20690
X74336Y18150
X71796Y20690
X71796Y18150
X71796Y81650
X71796Y79110
X69256Y81650
X69256Y79110
X66716Y81650
X64176Y81650
X64176Y79110
X61636Y81650
X61636Y79110
X59096Y81650
X59096Y79110
X56556Y81650
X56556Y79110
X54016Y81650
X54016Y79110
X51476Y81650
X51476Y79110
X48936Y81650
X48936Y79110
X46396Y81650
X46396Y79110
X43856Y81650
X43856Y79110
X41316Y81650
X59096Y20690
X41316Y79110
X38776Y81650
X38776Y79110
X36236Y81650
X36236Y79110
X33696Y81650
X33696Y79110
X31156Y81650
X31156Y79110
X28616Y81650
X28616Y79110
X69256Y20690
X69256Y18150
X66716Y20690
X66716Y18150
X64176Y20690
X64176Y18150
X61636Y20690
X61636Y18150
T10
X55245Y89535
X76200Y45720
M30